<svg width="796" height="1074" viewBox=" 0 0 796 1074" fill="none" xmlns="http://www.w3.org/2000/svg"><path fill-rule="evenodd" clip-rule="evenodd" d="M525.436 256.058c8.512 16.761 19.444 29.121 26.756 31.433 18.335 5.798 55.882-51.059 57.893-81.467 2.011-30.408-54.603-79.585-85.963-36.444-10.884 14.973-13.04 33.057-10.449 50.532l-68.157 70.306 50.607 31.622 29.313-65.982z" fill="#915B3C"/><path fill-rule="evenodd" clip-rule="evenodd" d="M511.445 140.774c-.623-2.641-.07-5.509.53-8.186.624-2.781 1.285-5.571 2.237-8.277 1.9-5.406 5.298-10.866 10.982-12.434 4.559-1.257 9.458-.038 13.395 2.023 2.624 1.372 4.976 3.329 6.883 5.618 1.892 2.27 2.97 5.112 4.673 7.522 3.281-5.055 7.498-9.855 12.818-12.598 5.118-2.64 10.568-2.51 15.488-.302 5.05 2.266 8.962 6.223 11.718 11.075.69 1.215 1.353 2.451 1.924 3.737.477 1.076.916 2.288 1.745 3.122.923.93 1.85.641 3.047.291a20.81 20.81 0 014.276-.754c6.344-.478 12.869 1.772 16.709 6.835 1.769 2.332 3.089 5.241 3.373 8.289.254 2.718-.57 6.264.566 8.756.481 1.058 1.513.7 2.594.634 1.625-.098 3.249-.312 4.874-.38 2.282-.097 4.524.166 6.644.895 3.105 1.067 6.762 3.557 5.317 7.594-.542 1.516-1.657 2.803-2.591 4.089a392.347 392.347 0 01-3.883 5.269c-.996 1.324-1.994 2.579-3.117 3.789-.599.644-1.893 1.734-2.038 2.664-.18 1.163 1.958 1.774 2.712 2.289 1.49 1.019 2.858 2.247 3.864 3.784.779 1.191 1.466 2.655 1.143 4.2-.197.949-.767 1.695-1.398 2.405-.756.851-.887 1.472-1.368 2.508 2.686.272 11.207 2.472 9.803 6.712-.468 1.412-2.012 2.372-3.176 3.082-2.041 1.245-4.267 2.157-6.472 2.976-4.6 1.709-9.408 2.657-14.19 3.05 2.761 4.088.627 9.723-4.549 10.641-2.285.405-4.433-.529-6.223-1.765-.656-.452-1.466-1.319-2.07-1.534-.325-.115-.783-.064-1.195-.284-2.713-1.448-5.258-3.909-7.44-6.075-3.888-3.86-6.837-8.687-8.297-14.145-.374-1.4-.815-2.346-2.032-3.09-1.067-.651-2.288-1.01-3.364-1.645-2.847-1.679-4.517-4.627-6.549-7.165-2.355 3.415-5.775 6.66-9.188 8.923-2.783 1.846-5.466.691-8.013-.587-8.146-4.083-15.361-9.715-23.071-14.518 6.404 6.345 13.675 11.854 19.826 18.456 2.781 2.983-1.177 3.641-3.58 4.309-3.958 1.1-7.697 3.191-11.006 5.788-.677-7.034-5.167-14.195-11.792-16.304-7.32-2.33-17.097 3.427-16.894 12.084.117 5.026 3.489 9.045 6.054 12.775-4.531 1.139-7.83 4.941-11.703 7.46-1.91 1.242-4.292 2.508-6.497 1.979-.816-.196-1.619-.671-2.495-.453-1.084.269-1.717.932-2.925.991-4.818.236-9.954-3.223-11.027-8.132-.971-4.439 2.455-8.362 6.451-9.752-2.648-3.729-7.971-9.723-3.064-14.411-7.435-5.362-18.409-29.711-2.254-32.397-3.696-6.8-4.015-17.971 4.002-22.634 6.173-3.59 14.242-1.877 19.813 1.208" fill="#191847"/><path fill-rule="evenodd" clip-rule="evenodd" d="M244.221 723.306s89.48 25.014 154.402 25.014c64.921 0 120.604-38.522 120.604-38.522S431.662 684.123 375 684.123c-56.662 0-130.779 39.183-130.779 39.183z" fill="#201A2D"/><path fill-rule="evenodd" clip-rule="evenodd" d="M450.264 772.357a14.032 14.032 0 01-1.447-2.823c-7.973-21.076-135.693-248.443-148.417-290.012h143.794c9.674 31.605 53.217 229.944 59.345 269.516 19.335 62.42 59.143 264.572 64.225 278.582 5.346 14.73-24.734 30.08-32.75 11.97-12.754-28.82-43.144-108.566-56.675-157.256-12.686-45.647-23.015-86.713-28.075-109.977z" fill="#784931"/><path fill-rule="evenodd" clip-rule="evenodd" d="M332.62 800.117c-58.391 14.75-271.974 41.416-286.631 45.599-15.078 4.302-28.298-26.76-9.661-33.488 29.654-10.706 111.364-35.443 160.905-45.538 39.848-8.12 76.209-14.745 100.621-18.625-2.068-68.538-11.522-233.019-5.325-268.543H419.76c-5.942 34.066-56.174 282.629-65.51 307.509-2.963 8.883-11.803 12.808-21.63 13.086z" fill="#915B3C"/><path fill-rule="evenodd" clip-rule="evenodd" d="M42.43 807.129c.311-1.129-.377-2.295-1.527-2.52-4.55-.892-15.231-2.77-20.363-1.866-6.624 1.168-18.944 5.613-18.944 5.613l24.355 138.049s18.748 2.244 18.122-9.6c-.626-11.843-.835-19.713-.835-19.713l17.67-70.69a1 1 0 00-.755-1.219l-12.231-2.689s-6.904-9.85-8.088-16.56c-.904-5.126 1.44-14.613 2.596-18.805zM529.834 1033.12c-1.058-.51-2.324-.03-2.746 1.06-1.669 4.33-5.375 14.51-5.375 19.72 0 6.72 2.241 19.62 2.241 19.62h140.253s5.467-18.06-6.312-19.5c-11.779-1.44-19.569-2.6-19.569-2.6l-66.586-29.67a.999.999 0 00-1.331.53l-4.773 11.57s-10.904 5.09-17.721 5.09c-5.21 0-14.153-3.96-18.081-5.82z" fill="#E4E4E4"/><path opacity=".98" fill-rule="evenodd" clip-rule="evenodd" d="M292.94 479.522s84.1-24.049 159.147 0c17.406 79.376 59.702 110.88 67.14 232.577-84.547 41.987-188.987-29.945-276.02 11.001-24.867-57.273 9.946-195.202 49.733-243.578z" fill="#3B3054"/><path fill-rule="evenodd" clip-rule="evenodd" d="M613.227 621.533l-41.067-89.258-36.291 29.365 52.82 66.463c6.766 33.541 12.347 49.053 16.743 46.537 3.706-2.121 3.851-5.951 3.984-9.478.103-2.747.2-5.311 1.968-6.742 4.038-3.268 16.822 4.399 28.643 12.193 11.821 7.794 11.268.304 9.795-4.059-8.421-14.531-20.62-29.538-36.595-45.021zm-422.72-55.488c12.082-11.173 86.767-136.602 86.767-136.602l48.361 18.783S225.183 575.831 218.207 583.32c-9.064 9.728-7.595 29.482-6.598 42.876.154 2.072.297 3.992.387 5.699-8.698.473-10.722-4.911-12.856-10.587-2.411-6.411-4.962-13.195-17.427-12.334-4.815.333-9.545 1.097-14.165 1.843-15.961 2.576-30.623 4.943-43.067-11.379-1.973-2.588-2.5-9.682 6.147-11.748 21.542-5.149 53.973-16.182 59.879-21.645z" fill="#915B3C"/><path fill-rule="evenodd" clip-rule="evenodd" d="M492.937 279.026l21.361 4.255c1.414 99.449 31.589 200.901 90.524 304.355l-95.272 54.001c-47.462-133.313-60.726-257.148-16.613-362.611z" fill="#23A9A9"/><path fill-rule="evenodd" clip-rule="evenodd" d="M308.882 497.373l178.463 68.505s-4.129-174.616 36.335-280.027l-50.754-28.687c-68.43 51.81-112.539 131.007-164.044 240.209z" fill="#DDE3E9"/><path fill-rule="evenodd" clip-rule="evenodd" d="M198.401 542.725C302.449 330.006 471.743 256.71 471.743 256.71l.029.055.035-.03 3.515 1.349c6.223 2.638 18.913 8.158 18.913 8.158l-1.264 42.171c-24.035 68.784-81.089 283.298-81.089 283.298L295.067 546.87a595.124 595.124 0 00-9.682 29.245l-86.984-33.39z" fill="#2BD0D0"/><path fill-rule="evenodd" clip-rule="evenodd" d="M294.736 547.791c14.861-41.5 33.34-78.73 52.848-111.352-12.74 42.705-25.246 95.176-20.304 123.845l-32.544-12.493z" fill="#000" fill-opacity=".1"/><path fill-rule="evenodd" clip-rule="evenodd" d="M348.167 485.858l67.981-4.677-10.296 26.82-57.685-22.143z" fill="#fff" fill-opacity=".2"/></svg>